{
	"asset":{
		"version":"2.0",
		"generator":"Created using the official Cinema 4D glTF Exporter 1.000x284978"
	},
	"scenes":[{
		"nodes":[0,
		1,
		2,
		3]
	}],
	"buffers":[{
		"uri":"data:application/octet-stream;base64,",
		"byteLength":624
	},
	{
		"uri":"data:application/octet-stream;base64,",
		"byteLength":204
	},
	{
		"uri":"data:application/octet-stream;base64,",
		"byteLength":204
	},
	{
		"uri":"data:application/octet-stream;base64,",
		"byteLength":204
	}],
	"nodes":[{
		"name":"Corps",
		"scale":[1.0,
		1.0,
		1.0],
		"translation":[3.835896235120731e-17,
		-1.588880118891255e-17,
		0.0],
		"rotation":[0.6532815098762512,
		-0.27059805393218996,
		-0.27059805393218996,
		0.6532815098762512],
		"mesh":0
	},
	{
		"name":"Nageoire_gauche",
		"scale":[1.0,
		1.0,
		1.0],
		"translation":[-1.6815924644470215,
		0.040567293763160709,
		-1.3415472507476807],
		"rotation":[0.5147741436958313,
		0.509496808052063,
		-0.49041223526000979,
		-0.48468175530433657],
		"mesh":1
	},
	{
		"name":"Nageoire_droite",
		"scale":[1.0,
		1.0,
		1.0],
		"translation":[2.4162979125976564,
		0.03868795931339264,
		-1.5799663066864014],
		"rotation":[0.4880426526069641,
		0.48246556520462038,
		-0.5170281529426575,
		-0.5115889310836792],
		"mesh":2
	},
	{
		"name":"Nageoire_arriere",
		"scale":[1.0,
		1.0,
		1.0],
		"translation":[-0.6910992860794067,
		-0.025995485484600068,
		4.286715507507324],
		"rotation":[0.4601137340068817,
		-0.4601137340068817,
		0.5369313955307007,
		-0.5369313955307007],
		"mesh":3
	}],
	"meshes":[{
		"name":"Corps",
		"primitives":[{
			"attributes":{
				"POSITION":1,
				"NORMAL":2,
				"TEXCOORD_0":3
			},
			"indices":0
		}]
	},
	{
		"name":"Nageoire_gauche",
		"primitives":[{
			"attributes":{
				"POSITION":5,
				"NORMAL":6,
				"TEXCOORD_0":7
			},
			"indices":4
		}]
	},
	{
		"name":"Nageoire_droite",
		"primitives":[{
			"attributes":{
				"POSITION":9,
				"NORMAL":10,
				"TEXCOORD_0":11
			},
			"indices":8
		}]
	},
	{
		"name":"Nageoire_arriere",
		"primitives":[{
			"attributes":{
				"POSITION":13,
				"NORMAL":14,
				"TEXCOORD_0":15
			},
			"indices":12
		}]
	}],
	"accessors":[{
		"bufferView":0,
		"type":"SCALAR",
		"componentType":5123,
		"count":24,
		"byteOffset":0,
		"min":[0],
		"max":[17]
	},
	{
		"bufferView":1,
		"type":"VEC3",
		"componentType":5126,
		"count":18,
		"byteOffset":0,
		"min":[-1.5083891153335572,
		-6.029301166534424,
		-1.5438565015792847],
		"max":[1.3775603771209717,
		3.221780300140381,
		1.406853437423706]
	},
	{
		"bufferView":1,
		"type":"VEC3",
		"componentType":5126,
		"count":18,
		"byteOffset":12,
		"min":[-0.9909165501594544,
		-0.4648374915122986,
		-0.9738205671310425],
		"max":[0.990028440952301,
		0.2229899913072586,
		0.989746630191803]
	},
	{
		"bufferView":1,
		"type":"VEC2",
		"componentType":5126,
		"count":18,
		"byteOffset":24,
		"min":[0.0,
		0.0],
		"max":[1.0,
		1.0]
	},
	{
		"bufferView":2,
		"type":"SCALAR",
		"componentType":5123,
		"count":6,
		"byteOffset":0,
		"min":[0],
		"max":[5]
	},
	{
		"bufferView":3,
		"type":"VEC3",
		"componentType":5126,
		"count":6,
		"byteOffset":0,
		"min":[-0.8850753903388977,
		-0.2929394841194153,
		-0.1701296865940094],
		"max":[0.8913148045539856,
		1.0214767456054688,
		-0.1357937455177307]
	},
	{
		"bufferView":3,
		"type":"VEC3",
		"componentType":5126,
		"count":6,
		"byteOffset":12,
		"min":[-0.0002898400416597724,
		-0.02630680799484253,
		-0.9996538758277893],
		"max":[0.0002898400416597724,
		0.02630680799484253,
		0.9996538758277893]
	},
	{
		"bufferView":3,
		"type":"VEC2",
		"componentType":5126,
		"count":6,
		"byteOffset":24,
		"min":[0.0,
		0.0],
		"max":[1.0,
		1.0]
	},
	{
		"bufferView":4,
		"type":"SCALAR",
		"componentType":5123,
		"count":6,
		"byteOffset":0,
		"min":[0],
		"max":[5]
	},
	{
		"bufferView":5,
		"type":"VEC3",
		"componentType":5126,
		"count":6,
		"byteOffset":0,
		"min":[-0.8850753903388977,
		-0.2929394841194153,
		0.7988107204437256],
		"max":[0.8913148045539856,
		1.0214767456054688,
		0.8331466913223267]
	},
	{
		"bufferView":5,
		"type":"VEC3",
		"componentType":5126,
		"count":6,
		"byteOffset":12,
		"min":[-0.0002898400416597724,
		-0.02630680799484253,
		-0.9996538758277893],
		"max":[0.0002898400416597724,
		0.02630680799484253,
		0.9996538758277893]
	},
	{
		"bufferView":5,
		"type":"VEC2",
		"componentType":5126,
		"count":6,
		"byteOffset":24,
		"min":[0.0,
		0.0],
		"max":[1.0,
		1.0]
	},
	{
		"bufferView":6,
		"type":"SCALAR",
		"componentType":5123,
		"count":6,
		"byteOffset":0,
		"min":[0],
		"max":[5]
	},
	{
		"bufferView":7,
		"type":"VEC3",
		"componentType":5126,
		"count":6,
		"byteOffset":0,
		"min":[-1.745235562324524,
		-0.5836966037750244,
		0.3193352222442627],
		"max":[1.745235562324524,
		2.6496543884277345,
		0.7882628440856934]
	},
	{
		"bufferView":7,
		"type":"VEC3",
		"componentType":5126,
		"count":6,
		"byteOffset":12,
		"min":[-3.894156220024066e-17,
		-0.1435268074274063,
		-0.9896464347839356],
		"max":[3.894156220024066e-17,
		0.1435268074274063,
		0.9896464347839356]
	},
	{
		"bufferView":7,
		"type":"VEC2",
		"componentType":5126,
		"count":6,
		"byteOffset":24,
		"min":[0.0,
		0.0],
		"max":[1.0,
		1.0]
	}],
	"bufferViews":[{
		"buffer":0,
		"byteOffset":0,
		"byteLength":48,
		"target":34963
	},
	{
		"buffer":0,
		"byteOffset":48,
		"byteLength":576,
		"target":34962,
		"byteStride":32
	},
	{
		"buffer":1,
		"byteOffset":0,
		"byteLength":12,
		"target":34963
	},
	{
		"buffer":1,
		"byteOffset":12,
		"byteLength":192,
		"target":34962,
		"byteStride":32
	},
	{
		"buffer":2,
		"byteOffset":0,
		"byteLength":12,
		"target":34963
	},
	{
		"buffer":2,
		"byteOffset":12,
		"byteLength":192,
		"target":34962,
		"byteStride":32
	},
	{
		"buffer":3,
		"byteOffset":0,
		"byteLength":12,
		"target":34963
	},
	{
		"buffer":3,
		"byteOffset":12,
		"byteLength":192,
		"target":34962,
		"byteStride":32
	}]
}